# xmcd
#
# Track frame offsets:
#	150
#	16468
#	34018
#	46041
#	56367
#	73462
#	88718
#	101598
#	120286
#	135319
#	144559
#	156544
#	169400
#	179963
#	193618
#	206407
#	216563
#
# Disc length: 3227 seconds
#
# Revision: 1
# Processed by: cddbd v1.4PL0 Copyright (c) Steve Scherf et al.
# Submitted via: audiograbber 1.81.02
#
DISCID=000c9911
DTITLE=David Allen Coe - The Original Outlaw Of Country Music [CD1]
DYEAR=1900
DGENRE=Country
TTITLE0=Long Haired Country Boy
TTITLE1=Mona Lisa Lost Her Smile
TTITLE2=Papa Loved Mama
TTITLE3=Would You Lay With Me
TTITLE4=Folsom Prison Blues
TTITLE5=Branded Man
TTITLE6=I Never Cheated On You
TTITLE7=Roll On Eighteen Wheeler
TTITLE8=Lonesome Fugitive
TTITLE9=Mansion On The Hill
TTITLE10=Ride 'Em Cowboy
TTITLE11=Four Walls
TTITLE12=Six Days On The Road
TTITLE13=He Stopped Loving Her Today
TTITLE14=White Line Fever
TTITLE15=Fighting Side Of Me
TTITLE16=House Of The Rising Sun
EXTD=
EXTT0=
EXTT1=
EXTT2=
EXTT3=
EXTT4=
EXTT5=
EXTT6=
EXTT7=
EXTT8=
EXTT9=
EXTT10=
EXTT11=
EXTT12=
EXTT13=
EXTT14=
EXTT15=
EXTT16=
PLAYORDER=
